<svg id="mermaid-svg-5834eab5f47386857ee8d81a7f15b2dbeec3ed61aab72005d7a97e4ed0c35156" width="100%" xmlns="http://www.w3.org/2000/svg" class="flowchart" style="max-width: 2749.328125px;" viewBox="0 0 2749.328125 1228" role="graphics-document document" aria-roledescription="flowchart-v2"><style>#mermaid-svg-5834eab5f47386857ee8d81a7f15b2dbeec3ed61aab72005d7a97e4ed0c35156{font-family:inherit;font-size:16px;fill:#333;}@keyframes edge-animation-frame{from{stroke-dashoffset:0;}}@keyframes dash{to{stroke-dashoffset:0;}}#mermaid-svg-5834eab5f47386857ee8d81a7f15b2dbeec3ed61aab72005d7a97e4ed0c35156 .edge-animation-slow{stroke-dasharray:9,5!important;stroke-dashoffset:900;animation:dash 50s linear infinite;stroke-linecap:round;}#mermaid-svg-5834eab5f47386857ee8d81a7f15b2dbeec3ed61aab72005d7a97e4ed0c35156 .edge-animation-fast{stroke-dasharray:9,5!important;stroke-dashoffset:900;animation:dash 20s linear infinite;stroke-linecap:round;}#mermaid-svg-5834eab5f47386857ee8d81a7f15b2dbeec3ed61aab72005d7a97e4ed0c35156 .error-icon{fill:#552222;}#mermaid-svg-5834eab5f47386857ee8d81a7f15b2dbeec3ed61aab72005d7a97e4ed0c35156 .error-text{fill:#552222;stroke:#552222;}#mermaid-svg-5834eab5f47386857ee8d81a7f15b2dbeec3ed61aab72005d7a97e4ed0c35156 .edge-thickness-normal{stroke-width:1px;}#mermaid-svg-5834eab5f47386857ee8d81a7f15b2dbeec3ed61aab72005d7a97e4ed0c35156 .edge-thickness-thick{stroke-width:3.5px;}#mermaid-svg-5834eab5f47386857ee8d81a7f15b2dbeec3ed61aab72005d7a97e4ed0c35156 .edge-pattern-solid{stroke-dasharray:0;}#mermaid-svg-5834eab5f47386857ee8d81a7f15b2dbeec3ed61aab72005d7a97e4ed0c35156 .edge-thickness-invisible{stroke-width:0;fill:none;}#mermaid-svg-5834eab5f47386857ee8d81a7f15b2dbeec3ed61aab72005d7a97e4ed0c35156 .edge-pattern-dashed{stroke-dasharray:3;}#mermaid-svg-5834eab5f47386857ee8d81a7f15b2dbeec3ed61aab72005d7a97e4ed0c35156 .edge-pattern-dotted{stroke-dasharray:2;}#mermaid-svg-5834eab5f47386857ee8d81a7f15b2dbeec3ed61aab72005d7a97e4ed0c35156 .marker{fill:#333333;stroke:#333333;}#mermaid-svg-5834eab5f47386857ee8d81a7f15b2dbeec3ed61aab72005d7a97e4ed0c35156 .marker.cross{stroke:#333333;}#mermaid-svg-5834eab5f47386857ee8d81a7f15b2dbeec3ed61aab72005d7a97e4ed0c35156 svg{font-family:inherit;font-size:16px;}#mermaid-svg-5834eab5f47386857ee8d81a7f15b2dbeec3ed61aab72005d7a97e4ed0c35156 p{margin:0;}#mermaid-svg-5834eab5f47386857ee8d81a7f15b2dbeec3ed61aab72005d7a97e4ed0c35156 .label{font-family:inherit;color:#333;}#mermaid-svg-5834eab5f47386857ee8d81a7f15b2dbeec3ed61aab72005d7a97e4ed0c35156 .cluster-label text{fill:#333;}#mermaid-svg-5834eab5f47386857ee8d81a7f15b2dbeec3ed61aab72005d7a97e4ed0c35156 .cluster-label span{color:#333;}#mermaid-svg-5834eab5f47386857ee8d81a7f15b2dbeec3ed61aab72005d7a97e4ed0c35156 .cluster-label span p{background-color:transparent;}#mermaid-svg-5834eab5f47386857ee8d81a7f15b2dbeec3ed61aab72005d7a97e4ed0c35156 .label text,#mermaid-svg-5834eab5f47386857ee8d81a7f15b2dbeec3ed61aab72005d7a97e4ed0c35156 span{fill:#333;color:#333;}#mermaid-svg-5834eab5f47386857ee8d81a7f15b2dbeec3ed61aab72005d7a97e4ed0c35156 .node rect,#mermaid-svg-5834eab5f47386857ee8d81a7f15b2dbeec3ed61aab72005d7a97e4ed0c35156 .node circle,#mermaid-svg-5834eab5f47386857ee8d81a7f15b2dbeec3ed61aab72005d7a97e4ed0c35156 .node ellipse,#mermaid-svg-5834eab5f47386857ee8d81a7f15b2dbeec3ed61aab72005d7a97e4ed0c35156 .node polygon,#mermaid-svg-5834eab5f47386857ee8d81a7f15b2dbeec3ed61aab72005d7a97e4ed0c35156 .node path{fill:#ECECFF;stroke:#9370DB;stroke-width:1px;}#mermaid-svg-5834eab5f47386857ee8d81a7f15b2dbeec3ed61aab72005d7a97e4ed0c35156 .rough-node .label text,#mermaid-svg-5834eab5f47386857ee8d81a7f15b2dbeec3ed61aab72005d7a97e4ed0c35156 .node .label text,#mermaid-svg-5834eab5f47386857ee8d81a7f15b2dbeec3ed61aab72005d7a97e4ed0c35156 .image-shape .label,#mermaid-svg-5834eab5f47386857ee8d81a7f15b2dbeec3ed61aab72005d7a97e4ed0c35156 .icon-shape .label{text-anchor:middle;}#mermaid-svg-5834eab5f47386857ee8d81a7f15b2dbeec3ed61aab72005d7a97e4ed0c35156 .node .katex path{fill:#000;stroke:#000;stroke-width:1px;}#mermaid-svg-5834eab5f47386857ee8d81a7f15b2dbeec3ed61aab72005d7a97e4ed0c35156 .rough-node .label,#mermaid-svg-5834eab5f47386857ee8d81a7f15b2dbeec3ed61aab72005d7a97e4ed0c35156 .node .label,#mermaid-svg-5834eab5f47386857ee8d81a7f15b2dbeec3ed61aab72005d7a97e4ed0c35156 .image-shape .label,#mermaid-svg-5834eab5f47386857ee8d81a7f15b2dbeec3ed61aab72005d7a97e4ed0c35156 .icon-shape .label{text-align:center;}#mermaid-svg-5834eab5f47386857ee8d81a7f15b2dbeec3ed61aab72005d7a97e4ed0c35156 .node.clickable{cursor:pointer;}#mermaid-svg-5834eab5f47386857ee8d81a7f15b2dbeec3ed61aab72005d7a97e4ed0c35156 .root .anchor path{fill:#333333!important;stroke-width:0;stroke:#333333;}#mermaid-svg-5834eab5f47386857ee8d81a7f15b2dbeec3ed61aab72005d7a97e4ed0c35156 .arrowheadPath{fill:#333333;}#mermaid-svg-5834eab5f47386857ee8d81a7f15b2dbeec3ed61aab72005d7a97e4ed0c35156 .edgePath .path{stroke:#333333;stroke-width:2.0px;}#mermaid-svg-5834eab5f47386857ee8d81a7f15b2dbeec3ed61aab72005d7a97e4ed0c35156 .flowchart-link{stroke:#333333;fill:none;}#mermaid-svg-5834eab5f47386857ee8d81a7f15b2dbeec3ed61aab72005d7a97e4ed0c35156 .edgeLabel{background-color:rgba(232,232,232, 0.8);text-align:center;}#mermaid-svg-5834eab5f47386857ee8d81a7f15b2dbeec3ed61aab72005d7a97e4ed0c35156 .edgeLabel p{background-color:rgba(232,232,232, 0.8);}#mermaid-svg-5834eab5f47386857ee8d81a7f15b2dbeec3ed61aab72005d7a97e4ed0c35156 .edgeLabel rect{opacity:0.5;background-color:rgba(232,232,232, 0.8);fill:rgba(232,232,232, 0.8);}#mermaid-svg-5834eab5f47386857ee8d81a7f15b2dbeec3ed61aab72005d7a97e4ed0c35156 .labelBkg{background-color:rgba(232, 232, 232, 0.5);}#mermaid-svg-5834eab5f47386857ee8d81a7f15b2dbeec3ed61aab72005d7a97e4ed0c35156 .cluster rect{fill:#ffffde;stroke:#aaaa33;stroke-width:1px;}#mermaid-svg-5834eab5f47386857ee8d81a7f15b2dbeec3ed61aab72005d7a97e4ed0c35156 .cluster text{fill:#333;}#mermaid-svg-5834eab5f47386857ee8d81a7f15b2dbeec3ed61aab72005d7a97e4ed0c35156 .cluster span{color:#333;}#mermaid-svg-5834eab5f47386857ee8d81a7f15b2dbeec3ed61aab72005d7a97e4ed0c35156 div.mermaidTooltip{position:absolute;text-align:center;max-width:200px;padding:2px;font-family:inherit;font-size:12px;background:hsl(80, 100%, 96.2745098039%);border:1px solid #aaaa33;border-radius:2px;pointer-events:none;z-index:100;}#mermaid-svg-5834eab5f47386857ee8d81a7f15b2dbeec3ed61aab72005d7a97e4ed0c35156 .flowchartTitleText{text-anchor:middle;font-size:18px;fill:#333;}#mermaid-svg-5834eab5f47386857ee8d81a7f15b2dbeec3ed61aab72005d7a97e4ed0c35156 rect.text{fill:none;stroke-width:0;}#mermaid-svg-5834eab5f47386857ee8d81a7f15b2dbeec3ed61aab72005d7a97e4ed0c35156 .icon-shape,#mermaid-svg-5834eab5f47386857ee8d81a7f15b2dbeec3ed61aab72005d7a97e4ed0c35156 .image-shape{background-color:rgba(232,232,232, 0.8);text-align:center;}#mermaid-svg-5834eab5f47386857ee8d81a7f15b2dbeec3ed61aab72005d7a97e4ed0c35156 .icon-shape p,#mermaid-svg-5834eab5f47386857ee8d81a7f15b2dbeec3ed61aab72005d7a97e4ed0c35156 .image-shape p{background-color:rgba(232,232,232, 0.8);padding:2px;}#mermaid-svg-5834eab5f47386857ee8d81a7f15b2dbeec3ed61aab72005d7a97e4ed0c35156 .icon-shape rect,#mermaid-svg-5834eab5f47386857ee8d81a7f15b2dbeec3ed61aab72005d7a97e4ed0c35156 .image-shape rect{opacity:0.5;background-color:rgba(232,232,232, 0.8);fill:rgba(232,232,232, 0.8);}#mermaid-svg-5834eab5f47386857ee8d81a7f15b2dbeec3ed61aab72005d7a97e4ed0c35156 :root{--mermaid-font-family:inherit;}</style><g><marker id="mermaid-svg-5834eab5f47386857ee8d81a7f15b2dbeec3ed61aab72005d7a97e4ed0c35156_flowchart-v2-pointEnd" class="marker flowchart-v2" viewBox="0 0 10 10" refX="5" refY="5" markerUnits="userSpaceOnUse" markerWidth="8" markerHeight="8" orient="auto"><path d="M 0 0 L 10 5 L 0 10 z" class="arrowMarkerPath" style="stroke-width: 1; stroke-dasharray: 1, 0;"></path></marker><marker id="mermaid-svg-5834eab5f47386857ee8d81a7f15b2dbeec3ed61aab72005d7a97e4ed0c35156_flowchart-v2-pointStart" class="marker flowchart-v2" viewBox="0 0 10 10" refX="4.5" refY="5" markerUnits="userSpaceOnUse" markerWidth="8" markerHeight="8" orient="auto"><path d="M 0 5 L 10 10 L 10 0 z" class="arrowMarkerPath" style="stroke-width: 1; stroke-dasharray: 1, 0;"></path></marker><marker id="mermaid-svg-5834eab5f47386857ee8d81a7f15b2dbeec3ed61aab72005d7a97e4ed0c35156_flowchart-v2-circleEnd" class="marker flowchart-v2" viewBox="0 0 10 10" refX="11" refY="5" markerUnits="userSpaceOnUse" markerWidth="11" markerHeight="11" orient="auto"><circle cx="5" cy="5" r="5" class="arrowMarkerPath" style="stroke-width: 1; stroke-dasharray: 1, 0;"></circle></marker><marker id="mermaid-svg-5834eab5f47386857ee8d81a7f15b2dbeec3ed61aab72005d7a97e4ed0c35156_flowchart-v2-circleStart" class="marker flowchart-v2" viewBox="0 0 10 10" refX="-1" refY="5" markerUnits="userSpaceOnUse" markerWidth="11" markerHeight="11" orient="auto"><circle cx="5" cy="5" r="5" class="arrowMarkerPath" style="stroke-width: 1; stroke-dasharray: 1, 0;"></circle></marker><marker id="mermaid-svg-5834eab5f47386857ee8d81a7f15b2dbeec3ed61aab72005d7a97e4ed0c35156_flowchart-v2-crossEnd" class="marker cross flowchart-v2" viewBox="0 0 11 11" refX="12" refY="5.2" markerUnits="userSpaceOnUse" markerWidth="11" markerHeight="11" orient="auto"><path d="M 1,1 l 9,9 M 10,1 l -9,9" class="arrowMarkerPath" style="stroke-width: 2; stroke-dasharray: 1, 0;"></path></marker><marker id="mermaid-svg-5834eab5f47386857ee8d81a7f15b2dbeec3ed61aab72005d7a97e4ed0c35156_flowchart-v2-crossStart" class="marker cross flowchart-v2" viewBox="0 0 11 11" refX="-1" refY="5.2" markerUnits="userSpaceOnUse" markerWidth="11" markerHeight="11" orient="auto"><path d="M 1,1 l 9,9 M 10,1 l -9,9" class="arrowMarkerPath" style="stroke-width: 2; stroke-dasharray: 1, 0;"></path></marker><g class="root"><g class="clusters"><g class="cluster " id="subGraph10" data-look="classic"><rect style="" x="8" y="761" width="252.671875" height="177"></rect><g class="cluster-label " transform="translate(90.390625, 761)"><foreignObject width="87.890625" height="24"><div xmlns="http://www.w3.org/1999/xhtml" style="display: table-cell; white-space: nowrap; line-height: 1.5; max-width: 200px; text-align: center;"><span class="nodeLabel "><p>🔮 LLM API</p></span></div></foreignObject></g></g><g class="cluster " id="subGraph9" data-look="classic"><rect style="" x="1076.05859375" y="1092" width="682.8125" height="128"></rect><g class="cluster-label " transform="translate(1380.66796875, 1092)"><foreignObject width="73.59375" height="24"><div xmlns="http://www.w3.org/1999/xhtml" style="display: table-cell; white-space: nowrap; line-height: 1.5; max-width: 200px; text-align: center;"><span class="nodeLabel "><p>💾 数据层</p></span></div></foreignObject></g></g><g class="cluster " id="subGraph8" data-look="classic"><rect style="" x="280.671875" y="510" width="314.953125" height="428"></rect><g class="cluster-label " transform="translate(391.234375, 510)"><foreignObject width="93.828125" height="24"><div xmlns="http://www.w3.org/1999/xhtml" style="display: table-cell; white-space: nowrap; line-height: 1.5; max-width: 200px; text-align: center;"><span class="nodeLabel "><p>🤖 Agent 层</p></span></div></foreignObject></g></g><g class="cluster " id="subGraph7" data-look="classic"><rect style="" x="615.625" y="8" width="2125.703125" height="930"></rect><g class="cluster-label " transform="translate(1599.3671875, 8)"><foreignObject width="158.21875" height="24"><div xmlns="http://www.w3.org/1999/xhtml" style="display: table-cell; white-space: nowrap; line-height: 1.5; max-width: 200px; text-align: center;"><span class="nodeLabel "><p>⚙️ 核心引擎 (Engine)</p></span></div></foreignObject></g></g><g class="cluster " id="subGraph0" data-look="classic"><rect style="" x="273.8125" y="234" width="247.546875" height="202"></rect><g class="cluster-label " transform="translate(360.7890625, 234)"><foreignObject width="73.59375" height="24"><div xmlns="http://www.w3.org/1999/xhtml" style="display: table-cell; white-space: nowrap; line-height: 1.5; max-width: 200px; text-align: center;"><span class="nodeLabel "><p>🌐 接入层</p></span></div></foreignObject></g></g><g class="cluster " id="subGraph6" data-look="classic"><rect style="" x="1108.671875" y="33" width="293.234375" height="654"></rect><g class="cluster-label " transform="translate(1201.9375, 33)"><foreignObject width="106.703125" height="24"><div xmlns="http://www.w3.org/1999/xhtml" style="display: table-cell; white-space: nowrap; line-height: 1.5; max-width: 200px; text-align: center;"><span class="nodeLabel "><p>🏗️ 调度与并行</p></span></div></foreignObject></g></g><g class="cluster " id="subGraph5" data-look="classic"><rect style="" x="687.65625" y="535" width="272.125" height="152"></rect><g class="cluster-label " transform="translate(778.3671875, 535)"><foreignObject width="90.703125" height="24"><div xmlns="http://www.w3.org/1999/xhtml" style="display: table-cell; white-space: nowrap; line-height: 1.5; max-width: 200px; text-align: center;"><span class="nodeLabel "><p>📦 批量处理</p></span></div></foreignObject></g></g><g class="cluster " id="subGraph4" data-look="classic"><rect style="" x="1421.90625" y="259" width="550.96875" height="152"></rect><g class="cluster-label " transform="translate(1645.1640625, 259)"><foreignObject width="104.453125" height="24"><div xmlns="http://www.w3.org/1999/xhtml" style="display: table-cell; white-space: nowrap; line-height: 1.5; max-width: 200px; text-align: center;"><span class="nodeLabel "><p>🚨 异常与中断</p></span></div></foreignObject></g></g><g class="cluster " id="subGraph3" data-look="classic"><rect style="" x="635.625" y="259" width="453.046875" height="152"></rect><g class="cluster-label " transform="translate(810.4765625, 259)"><foreignObject width="103.34375" height="24"><div xmlns="http://www.w3.org/1999/xhtml" style="display: table-cell; white-space: nowrap; line-height: 1.5; max-width: 200px; text-align: center;"><span class="nodeLabel "><p>🔒 同步与竞争</p></span></div></foreignObject></g></g><g class="cluster " id="subGraph2" data-look="classic"><rect style="" x="2443.875" y="33" width="277.453125" height="378"></rect><g class="cluster-label " transform="translate(2529.8046875, 33)"><foreignObject width="105.59375" height="24"><div xmlns="http://www.w3.org/1999/xhtml" style="display: table-cell; white-space: nowrap; line-height: 1.5; max-width: 200px; text-align: center;"><span class="nodeLabel "><p>⚡ 预测与预取</p></span></div></foreignObject></g></g><g class="cluster " id="subGraph1" data-look="classic"><rect style="" x="1992.875" y="33" width="431" height="880"></rect><g class="cluster-label " transform="translate(2163.578125, 33)"><foreignObject width="89.59375" height="24"><div xmlns="http://www.w3.org/1999/xhtml" style="display: table-cell; white-space: nowrap; line-height: 1.5; max-width: 200px; text-align: center;"><span class="nodeLabel "><p>📊 存储层级</p></span></div></foreignObject></g></g></g><g class="edgePaths"><path d="M397.586,374L397.586,380.167C397.586,386.333,397.586,398.667,397.586,409C397.586,419.333,397.586,427.667,397.586,438C397.586,448.333,397.586,460.667,397.586,473C397.586,485.333,397.586,497.667,397.586,508C397.586,518.333,397.586,526.667,397.586,536.333C397.586,546,397.586,557,397.586,562.5L397.586,568" id="L_WebApp_Agent_0" class=" edge-thickness-normal edge-pattern-solid edge-thickness-normal edge-pattern-solid flowchart-link" style="" marker-end="url(#mermaid-svg-5834eab5f47386857ee8d81a7f15b2dbeec3ed61aab72005d7a97e4ed0c35156_flowchart-v2-pointEnd)"></path><path d="M427.048,650L431.707,656.167C436.366,662.333,445.683,674.667,450.341,687C455,699.333,455,711.667,455,724C455,736.333,455,748.667,453.777,760.349C452.554,772.032,450.108,783.063,448.885,788.579L447.662,794.095" id="L_Agent_Tools_0" class=" edge-thickness-normal edge-pattern-solid edge-thickness-normal edge-pattern-solid flowchart-link" style="" marker-end="url(#mermaid-svg-5834eab5f47386857ee8d81a7f15b2dbeec3ed61aab72005d7a97e4ed0c35156_flowchart-v2-pointEnd)"></path><path d="M438.148,876L438.148,882.167C438.148,888.333,438.148,900.667,438.148,911C438.148,921.333,438.148,929.667,438.148,938C438.148,946.333,438.148,954.667,587.881,966.957C737.613,979.247,1037.077,995.495,1186.809,1003.619L1336.541,1011.742" id="L_Tools_Engine_0" class=" edge-thickness-normal edge-pattern-solid edge-thickness-normal edge-pattern-solid flowchart-link" style="" marker-end="url(#mermaid-svg-5834eab5f47386857ee8d81a7f15b2dbeec3ed61aab72005d7a97e4ed0c35156_flowchart-v2-pointEnd)"></path><path d="M2105.875,390L2105.875,393.5C2105.875,397,2105.875,404,2105.875,411.667C2105.875,419.333,2105.875,427.667,2105.875,438C2105.875,448.333,2105.875,460.667,2105.875,473C2105.875,485.333,2105.875,497.667,2105.875,508C2105.875,518.333,2105.875,526.667,2113.721,535.199C2121.567,543.732,2137.258,552.465,2145.104,556.831L2152.95,561.197" id="L_L1_L2_0" class=" edge-thickness-normal edge-pattern-solid edge-thickness-normal edge-pattern-solid flowchart-link" style="" marker-start="url(#mermaid-svg-5834eab5f47386857ee8d81a7f15b2dbeec3ed61aab72005d7a97e4ed0c35156_flowchart-v2-pointStart)" marker-end="url(#mermaid-svg-5834eab5f47386857ee8d81a7f15b2dbeec3ed61aab72005d7a97e4ed0c35156_flowchart-v2-pointEnd)"></path><path d="M2242.445,666L2242.445,669.5C2242.445,673,2242.445,680,2242.445,689.667C2242.445,699.333,2242.445,711.667,2242.445,724C2242.445,736.333,2242.445,748.667,2242.445,758.333C2242.445,768,2242.445,775,2242.445,778.5L2242.445,782" id="L_L2_L3_0" class=" edge-thickness-normal edge-pattern-solid edge-thickness-normal edge-pattern-solid flowchart-link" style="" marker-start="url(#mermaid-svg-5834eab5f47386857ee8d81a7f15b2dbeec3ed61aab72005d7a97e4ed0c35156_flowchart-v2-pointStart)" marker-end="url(#mermaid-svg-5834eab5f47386857ee8d81a7f15b2dbeec3ed61aab72005d7a97e4ed0c35156_flowchart-v2-pointEnd)"></path><path d="M2121.882,160L2119.214,166.167C2116.546,172.333,2111.211,184.667,2108.543,197C2105.875,209.333,2105.875,221.667,2105.875,232C2105.875,242.333,2105.875,250.667,2105.875,258.333C2105.875,266,2105.875,273,2105.875,276.5L2105.875,280" id="L_TLB_L1_0" class=" edge-thickness-normal edge-pattern-dotted edge-thickness-normal edge-pattern-solid flowchart-link" style="" marker-end="url(#mermaid-svg-5834eab5f47386857ee8d81a7f15b2dbeec3ed61aab72005d7a97e4ed0c35156_flowchart-v2-pointEnd)"></path><path d="M2205.916,160L2213.409,166.167C2220.902,172.333,2235.889,184.667,2243.382,197C2250.875,209.333,2250.875,221.667,2250.875,232C2250.875,242.333,2250.875,250.667,2250.875,267.5C2250.875,284.333,2250.875,309.667,2250.875,335C2250.875,360.333,2250.875,385.667,2250.875,402.5C2250.875,419.333,2250.875,427.667,2250.875,438C2250.875,448.333,2250.875,460.667,2250.875,473C2250.875,485.333,2250.875,497.667,2250.875,508C2250.875,518.333,2250.875,526.667,2250.486,534.337C2250.098,542.008,2249.32,549.016,2248.932,552.52L2248.543,556.024" id="L_TLB_L2_0" class=" edge-thickness-normal edge-pattern-dotted edge-thickness-normal edge-pattern-solid flowchart-link" style="" marker-end="url(#mermaid-svg-5834eab5f47386857ee8d81a7f15b2dbeec3ed61aab72005d7a97e4ed0c35156_flowchart-v2-pointEnd)"></path><path d="M2582.602,148L2582.602,156.167C2582.602,164.333,2582.602,180.667,2582.602,195C2582.602,209.333,2582.602,221.667,2582.602,232C2582.602,242.333,2582.602,250.667,2582.602,260.333C2582.602,270,2582.602,281,2582.602,286.5L2582.602,292" id="L_BranchPred_Prefetcher_0" class=" edge-thickness-normal edge-pattern-solid edge-thickness-normal edge-pattern-solid flowchart-link" style="" marker-end="url(#mermaid-svg-5834eab5f47386857ee8d81a7f15b2dbeec3ed61aab72005d7a97e4ed0c35156_flowchart-v2-pointEnd)"></path><path d="M2582.602,374L2582.602,380.167C2582.602,386.333,2582.602,398.667,2537.397,409C2492.193,419.333,2401.784,427.667,2356.579,438C2311.375,448.333,2311.375,460.667,2311.375,473C2311.375,485.333,2311.375,497.667,2311.375,508C2311.375,518.333,2311.375,526.667,2308.044,534.506C2304.713,542.346,2298.05,549.691,2294.719,553.364L2291.388,557.037" id="L_Prefetcher_L2_0" class=" edge-thickness-normal edge-pattern-solid edge-thickness-normal edge-pattern-solid flowchart-link" style="" marker-end="url(#mermaid-svg-5834eab5f47386857ee8d81a7f15b2dbeec3ed61aab72005d7a97e4ed0c35156_flowchart-v2-pointEnd)"></path><path d="M2183.875,357.286L2215.208,366.238C2246.542,375.19,2309.208,393.095,2340.542,406.214C2371.875,419.333,2371.875,427.667,2371.875,438C2371.875,448.333,2371.875,460.667,2371.875,473C2371.875,485.333,2371.875,497.667,2371.875,508C2371.875,518.333,2371.875,526.667,2371.875,543.5C2371.875,560.333,2371.875,585.667,2371.875,611C2371.875,636.333,2371.875,661.667,2371.875,680.5C2371.875,699.333,2371.875,711.667,2371.875,724C2371.875,736.333,2371.875,748.667,2371.875,767.5C2371.875,786.333,2371.875,811.667,2371.875,837C2371.875,862.333,2371.875,887.667,2371.875,904.5C2371.875,921.333,2371.875,929.667,2371.875,938C2371.875,946.333,2371.875,954.667,2219.333,966.966C2066.791,979.266,1761.707,995.533,1609.165,1003.666L1456.623,1011.799" id="L_L1_Engine_0" class=" edge-thickness-normal edge-pattern-solid edge-thickness-normal edge-pattern-solid flowchart-link" style="" marker-end="url(#mermaid-svg-5834eab5f47386857ee8d81a7f15b2dbeec3ed61aab72005d7a97e4ed0c35156_flowchart-v2-pointEnd)"></path><path d="M1255.289,148L1255.289,156.167C1255.289,164.333,1255.289,180.667,1255.289,195C1255.289,209.333,1255.289,221.667,1255.289,232C1255.289,242.333,1255.289,250.667,1222.33,263.631C1189.372,276.595,1123.454,294.191,1090.495,302.988L1057.537,311.786" id="L_DualQueue_Semaphore_0" class=" edge-thickness-normal edge-pattern-solid edge-thickness-normal edge-pattern-solid flowchart-link" style="" marker-end="url(#mermaid-svg-5834eab5f47386857ee8d81a7f15b2dbeec3ed61aab72005d7a97e4ed0c35156_flowchart-v2-pointEnd)"></path><path d="M970.57,386L970.57,390.167C970.57,394.333,970.57,402.667,1010.139,411C1049.707,419.333,1128.844,427.667,1168.412,438C1207.98,448.333,1207.98,460.667,1207.98,473C1207.98,485.333,1207.98,497.667,1207.98,508C1207.98,518.333,1207.98,526.667,1211.467,536.434C1214.953,546.201,1221.926,557.403,1225.412,563.003L1228.898,568.604" id="L_Semaphore_Pipeline_0" class=" edge-thickness-normal edge-pattern-solid edge-thickness-normal edge-pattern-solid flowchart-link" style="" marker-end="url(#mermaid-svg-5834eab5f47386857ee8d81a7f15b2dbeec3ed61aab72005d7a97e4ed0c35156_flowchart-v2-pointEnd)"></path><path d="M1255.289,650L1255.289,656.167C1255.289,662.333,1255.289,674.667,1255.289,687C1255.289,699.333,1255.289,711.667,1255.289,724C1255.289,736.333,1255.289,748.667,1140.176,765.54C1025.062,782.413,794.835,803.826,679.721,814.532L564.608,825.238" id="L_Pipeline_Tools_0" class=" edge-thickness-normal edge-pattern-solid edge-thickness-normal edge-pattern-solid flowchart-link" style="" marker-end="url(#mermaid-svg-5834eab5f47386857ee8d81a7f15b2dbeec3ed61aab72005d7a97e4ed0c35156_flowchart-v2-pointEnd)"></path><path d="M1833.352,374L1833.352,380.167C1833.352,386.333,1833.352,398.667,1833.352,409C1833.352,419.333,1833.352,427.667,1833.352,438C1833.352,448.333,1833.352,460.667,1833.352,473C1833.352,485.333,1833.352,497.667,1833.352,508C1833.352,518.333,1833.352,526.667,1833.352,543.5C1833.352,560.333,1833.352,585.667,1833.352,611C1833.352,636.333,1833.352,661.667,1833.352,680.5C1833.352,699.333,1833.352,711.667,1833.352,724C1833.352,736.333,1833.352,748.667,1621.896,766.352C1410.441,784.037,987.53,807.074,776.074,818.592L564.619,830.111" id="L_Watchdog_Tools_0" class=" edge-thickness-normal edge-pattern-solid edge-thickness-normal edge-pattern-solid flowchart-link" style="" marker-end="url(#mermaid-svg-5834eab5f47386857ee8d81a7f15b2dbeec3ed61aab72005d7a97e4ed0c35156_flowchart-v2-pointEnd)"></path><path d="M1567.867,374L1567.867,380.167C1567.867,386.333,1567.867,398.667,1523.656,409C1479.444,419.333,1391.021,427.667,1346.809,438C1302.598,448.333,1302.598,460.667,1302.598,473C1302.598,485.333,1302.598,497.667,1302.598,508C1302.598,518.333,1302.598,526.667,1299.111,536.434C1295.625,546.201,1288.652,557.403,1285.166,563.003L1281.68,568.604" id="L_InterruptMgr_Pipeline_0" class=" edge-thickness-normal edge-pattern-solid edge-thickness-normal edge-pattern-solid flowchart-link" style="" marker-end="url(#mermaid-svg-5834eab5f47386857ee8d81a7f15b2dbeec3ed61aab72005d7a97e4ed0c35156_flowchart-v2-pointEnd)"></path><path d="M823.719,650L823.719,656.167C823.719,662.333,823.719,674.667,823.719,687C823.719,699.333,823.719,711.667,823.719,724C823.719,736.333,823.719,748.667,724.707,765.749C625.695,782.831,427.671,804.662,328.66,815.577L229.648,826.492" id="L_BatchProc_MiniMax_0" class=" edge-thickness-normal edge-pattern-solid edge-thickness-normal edge-pattern-solid flowchart-link" style="" marker-end="url(#mermaid-svg-5834eab5f47386857ee8d81a7f15b2dbeec3ed61aab72005d7a97e4ed0c35156_flowchart-v2-pointEnd)"></path><path d="M1340.535,1028.041L1312.63,1034.534C1284.725,1041.028,1228.915,1054.014,1201.01,1064.674C1173.105,1075.333,1173.105,1083.667,1173.105,1091.333C1173.105,1099,1173.105,1106,1173.105,1109.5L1173.105,1113" id="L_Engine_DB_0" class=" edge-thickness-normal edge-pattern-solid edge-thickness-normal edge-pattern-solid flowchart-link" style="" marker-end="url(#mermaid-svg-5834eab5f47386857ee8d81a7f15b2dbeec3ed61aab72005d7a97e4ed0c35156_flowchart-v2-pointEnd)"></path><path d="M1394.493,1042L1394.171,1046.167C1393.848,1050.333,1393.203,1058.667,1392.881,1067C1392.559,1075.333,1392.559,1083.667,1392.559,1091.333C1392.559,1099,1392.559,1106,1392.559,1109.5L1392.559,1113" id="L_Engine_Conv_0" class=" edge-thickness-normal edge-pattern-solid edge-thickness-normal edge-pattern-solid flowchart-link" style="" marker-end="url(#mermaid-svg-5834eab5f47386857ee8d81a7f15b2dbeec3ed61aab72005d7a97e4ed0c35156_flowchart-v2-pointEnd)"></path><path d="M1452.629,1027.127L1483.344,1033.772C1514.059,1040.418,1575.488,1053.709,1606.203,1064.521C1636.918,1075.333,1636.918,1083.667,1636.918,1091.333C1636.918,1099,1636.918,1106,1636.918,1109.5L1636.918,1113" id="L_Engine_Workspace_0" class=" edge-thickness-normal edge-pattern-solid edge-thickness-normal edge-pattern-solid flowchart-link" style="" marker-end="url(#mermaid-svg-5834eab5f47386857ee8d81a7f15b2dbeec3ed61aab72005d7a97e4ed0c35156_flowchart-v2-pointEnd)"></path><path d="M372.72,650L368.788,656.167C364.856,662.333,356.993,674.667,353.061,687C349.129,699.333,349.129,711.667,349.129,724C349.129,736.333,349.129,748.667,326.677,762.778C304.224,776.889,259.32,792.777,236.867,800.721L214.415,808.666" id="L_Agent_MiniMax_0" class=" edge-thickness-normal edge-pattern-solid edge-thickness-normal edge-pattern-solid flowchart-link" style="" marker-end="url(#mermaid-svg-5834eab5f47386857ee8d81a7f15b2dbeec3ed61aab72005d7a97e4ed0c35156_flowchart-v2-pointEnd)"></path></g><g class="edgeLabels"><g class="edgeLabel"><g class="label" transform="translate(0, 0)"><foreignObject width="0" height="0"><div xmlns="http://www.w3.org/1999/xhtml" class="labelBkg" style="display: table-cell; white-space: nowrap; line-height: 1.5; max-width: 200px; text-align: center;"><span class="edgeLabel "></span></div></foreignObject></g></g><g class="edgeLabel"><g class="label" transform="translate(0, 0)"><foreignObject width="0" height="0"><div xmlns="http://www.w3.org/1999/xhtml" class="labelBkg" style="display: table-cell; white-space: nowrap; line-height: 1.5; max-width: 200px; text-align: center;"><span class="edgeLabel "></span></div></foreignObject></g></g><g class="edgeLabel"><g class="label" transform="translate(0, 0)"><foreignObject width="0" height="0"><div xmlns="http://www.w3.org/1999/xhtml" class="labelBkg" style="display: table-cell; white-space: nowrap; line-height: 1.5; max-width: 200px; text-align: center;"><span class="edgeLabel "></span></div></foreignObject></g></g><g class="edgeLabel"><g class="label" transform="translate(0, 0)"><foreignObject width="0" height="0"><div xmlns="http://www.w3.org/1999/xhtml" class="labelBkg" style="display: table-cell; white-space: nowrap; line-height: 1.5; max-width: 200px; text-align: center;"><span class="edgeLabel "></span></div></foreignObject></g></g><g class="edgeLabel"><g class="label" transform="translate(0, 0)"><foreignObject width="0" height="0"><div xmlns="http://www.w3.org/1999/xhtml" class="labelBkg" style="display: table-cell; white-space: nowrap; line-height: 1.5; max-width: 200px; text-align: center;"><span class="edgeLabel "></span></div></foreignObject></g></g><g class="edgeLabel" transform="translate(2105.875, 197)"><g class="label" transform="translate(-32, -12)"><foreignObject width="64" height="24"><div xmlns="http://www.w3.org/1999/xhtml" class="labelBkg" style="display: table-cell; white-space: nowrap; line-height: 1.5; max-width: 200px; text-align: center;"><span class="edgeLabel "><p>快速查找</p></span></div></foreignObject></g></g><g class="edgeLabel" transform="translate(2250.875, 335)"><g class="label" transform="translate(-32, -12)"><foreignObject width="64" height="24"><div xmlns="http://www.w3.org/1999/xhtml" class="labelBkg" style="display: table-cell; white-space: nowrap; line-height: 1.5; max-width: 200px; text-align: center;"><span class="edgeLabel "><p>快速查找</p></span></div></foreignObject></g></g><g class="edgeLabel" transform="translate(2582.6015625, 197)"><g class="label" transform="translate(-48, -12)"><foreignObject width="96" height="24"><div xmlns="http://www.w3.org/1999/xhtml" class="labelBkg" style="display: table-cell; white-space: nowrap; line-height: 1.5; max-width: 200px; text-align: center;"><span class="edgeLabel "><p>预测工具调用</p></span></div></foreignObject></g></g><g class="edgeLabel" transform="translate(2311.375, 473)"><g class="label" transform="translate(-40, -12)"><foreignObject width="80" height="24"><div xmlns="http://www.w3.org/1999/xhtml" class="labelBkg" style="display: table-cell; white-space: nowrap; line-height: 1.5; max-width: 200px; text-align: center;"><span class="edgeLabel "><p>预取上下文</p></span></div></foreignObject></g></g><g class="edgeLabel" transform="translate(2371.875, 724)"><g class="label" transform="translate(-32, -12)"><foreignObject width="64" height="24"><div xmlns="http://www.w3.org/1999/xhtml" class="labelBkg" style="display: table-cell; white-space: nowrap; line-height: 1.5; max-width: 200px; text-align: center;"><span class="edgeLabel "><p>命中返回</p></span></div></foreignObject></g></g><g class="edgeLabel" transform="translate(1255.2890625, 197)"><g class="label" transform="translate(-32, -12)"><foreignObject width="64" height="24"><div xmlns="http://www.w3.org/1999/xhtml" class="labelBkg" style="display: table-cell; white-space: nowrap; line-height: 1.5; max-width: 200px; text-align: center;"><span class="edgeLabel "><p>分发任务</p></span></div></foreignObject></g></g><g class="edgeLabel" transform="translate(1207.98046875, 473)"><g class="label" transform="translate(-32, -12)"><foreignObject width="64" height="24"><div xmlns="http://www.w3.org/1999/xhtml" class="labelBkg" style="display: table-cell; white-space: nowrap; line-height: 1.5; max-width: 200px; text-align: center;"><span class="edgeLabel "><p>控制并发</p></span></div></foreignObject></g></g><g class="edgeLabel" transform="translate(1255.2890625, 724)"><g class="label" transform="translate(-16, -12)"><foreignObject width="32" height="24"><div xmlns="http://www.w3.org/1999/xhtml" class="labelBkg" style="display: table-cell; white-space: nowrap; line-height: 1.5; max-width: 200px; text-align: center;"><span class="edgeLabel "><p>执行</p></span></div></foreignObject></g></g><g class="edgeLabel" transform="translate(1833.3515625, 611)"><g class="label" transform="translate(-32, -12)"><foreignObject width="64" height="24"><div xmlns="http://www.w3.org/1999/xhtml" class="labelBkg" style="display: table-cell; white-space: nowrap; line-height: 1.5; max-width: 200px; text-align: center;"><span class="edgeLabel "><p>超时监控</p></span></div></foreignObject></g></g><g class="edgeLabel" transform="translate(1302.59765625, 473)"><g class="label" transform="translate(-32, -12)"><foreignObject width="64" height="24"><div xmlns="http://www.w3.org/1999/xhtml" class="labelBkg" style="display: table-cell; white-space: nowrap; line-height: 1.5; max-width: 200px; text-align: center;"><span class="edgeLabel "><p>中断处理</p></span></div></foreignObject></g></g><g class="edgeLabel" transform="translate(823.71875, 724)"><g class="label" transform="translate(-32, -12)"><foreignObject width="64" height="24"><div xmlns="http://www.w3.org/1999/xhtml" class="labelBkg" style="display: table-cell; white-space: nowrap; line-height: 1.5; max-width: 200px; text-align: center;"><span class="edgeLabel "><p>批量推理</p></span></div></foreignObject></g></g><g class="edgeLabel"><g class="label" transform="translate(0, 0)"><foreignObject width="0" height="0"><div xmlns="http://www.w3.org/1999/xhtml" class="labelBkg" style="display: table-cell; white-space: nowrap; line-height: 1.5; max-width: 200px; text-align: center;"><span class="edgeLabel "></span></div></foreignObject></g></g><g class="edgeLabel"><g class="label" transform="translate(0, 0)"><foreignObject width="0" height="0"><div xmlns="http://www.w3.org/1999/xhtml" class="labelBkg" style="display: table-cell; white-space: nowrap; line-height: 1.5; max-width: 200px; text-align: center;"><span class="edgeLabel "></span></div></foreignObject></g></g><g class="edgeLabel"><g class="label" transform="translate(0, 0)"><foreignObject width="0" height="0"><div xmlns="http://www.w3.org/1999/xhtml" class="labelBkg" style="display: table-cell; white-space: nowrap; line-height: 1.5; max-width: 200px; text-align: center;"><span class="edgeLabel "></span></div></foreignObject></g></g><g class="edgeLabel"><g class="label" transform="translate(0, 0)"><foreignObject width="0" height="0"><div xmlns="http://www.w3.org/1999/xhtml" class="labelBkg" style="display: table-cell; white-space: nowrap; line-height: 1.5; max-width: 200px; text-align: center;"><span class="edgeLabel "></span></div></foreignObject></g></g></g><g class="nodes"><g class="node default  " id="flowchart-WebApp-0" transform="translate(397.5859375, 335)"><rect class="basic label-container" style="" x="-88.7734375" y="-39" width="177.546875" height="78"></rect><g class="label" style="" transform="translate(-58.7734375, -24)"><rect></rect><foreignObject width="117.546875" height="48"><div xmlns="http://www.w3.org/1999/xhtml" style="display: table-cell; white-space: nowrap; line-height: 1.5; max-width: 200px; text-align: center;"><span class="nodeLabel "><p>🖥️ web_app.py<br/>(Flask Server)</p></span></div></foreignObject></g></g><g class="node default  " id="flowchart-L1-1" transform="translate(2105.875, 335)"><rect class="basic label-container" style="" x="-78" y="-51" width="156" height="102"></rect><g class="label" style="" transform="translate(-48, -36)"><rect></rect><foreignObject width="96" height="72"><div xmlns="http://www.w3.org/1999/xhtml" style="display: table-cell; white-space: nowrap; line-height: 1.5; max-width: 200px; text-align: center;"><span class="nodeLabel "><p>L1 Cache<br/>热点结果缓存<br/>(64条, LRU)</p></span></div></foreignObject></g></g><g class="node default  " id="flowchart-L2-2" transform="translate(2242.4453125, 611)"><rect class="basic label-container" style="" x="-86" y="-51" width="172" height="102"></rect><g class="label" style="" transform="translate(-56, -36)"><rect></rect><foreignObject width="112" height="72"><div xmlns="http://www.w3.org/1999/xhtml" style="display: table-cell; white-space: nowrap; line-height: 1.5; max-width: 200px; text-align: center;"><span class="nodeLabel "><p>L2 Cache<br/>上下文片段缓存<br/>(256条)</p></span></div></foreignObject></g></g><g class="node default  " id="flowchart-L3-3" transform="translate(2242.4453125, 837)"><rect class="basic label-container" style="" x="-78" y="-51" width="156" height="102"></rect><g class="label" style="" transform="translate(-48, -36)"><rect></rect><foreignObject width="96" height="72"><div xmlns="http://www.w3.org/1999/xhtml" style="display: table-cell; white-space: nowrap; line-height: 1.5; max-width: 200px; text-align: center;"><span class="nodeLabel "><p>L3 Cache<br/>长期记忆索引<br/>(1024条)</p></span></div></foreignObject></g></g><g class="node default  " id="flowchart-TLB-4" transform="translate(2143.9453125, 109)"><rect class="basic label-container" style="" x="-70" y="-51" width="140" height="102"></rect><g class="label" style="" transform="translate(-40, -36)"><rect></rect><foreignObject width="80" height="72"><div xmlns="http://www.w3.org/1999/xhtml" style="display: table-cell; white-space: nowrap; line-height: 1.5; max-width: 200px; text-align: center;"><span class="nodeLabel "><p>TLB<br/>快速查找表<br/>(128条)</p></span></div></foreignObject></g></g><g class="node default  " id="flowchart-BranchPred-5" transform="translate(2582.6015625, 109)"><rect class="basic label-container" style="" x="-103.7265625" y="-39" width="207.453125" height="78"></rect><g class="label" style="" transform="translate(-73.7265625, -24)"><rect></rect><foreignObject width="147.453125" height="48"><div xmlns="http://www.w3.org/1999/xhtml" style="display: table-cell; white-space: nowrap; line-height: 1.5; max-width: 200px; text-align: center;"><span class="nodeLabel "><p>🔮 BranchPredictor<br/>分支预测器</p></span></div></foreignObject></g></g><g class="node default  " id="flowchart-Prefetcher-6" transform="translate(2582.6015625, 335)"><rect class="basic label-container" style="" x="-82.4375" y="-39" width="164.875" height="78"></rect><g class="label" style="" transform="translate(-52.4375, -24)"><rect></rect><foreignObject width="104.875" height="48"><div xmlns="http://www.w3.org/1999/xhtml" style="display: table-cell; white-space: nowrap; line-height: 1.5; max-width: 200px; text-align: center;"><span class="nodeLabel "><p>📥 Prefetcher<br/>预取器</p></span></div></foreignObject></g></g><g class="node default  " id="flowchart-AsyncLock-7" transform="translate(754.046875, 335)"><rect class="basic label-container" style="" x="-83.421875" y="-39" width="166.84375" height="78"></rect><g class="label" style="" transform="translate(-53.421875, -24)"><rect></rect><foreignObject width="106.84375" height="48"><div xmlns="http://www.w3.org/1999/xhtml" style="display: table-cell; white-space: nowrap; line-height: 1.5; max-width: 200px; text-align: center;"><span class="nodeLabel "><p>🔐 AsyncLock<br/>互斥锁</p></span></div></foreignObject></g></g><g class="node default  " id="flowchart-Semaphore-8" transform="translate(970.5703125, 335)"><rect class="basic label-container" style="" x="-83.1015625" y="-51" width="166.203125" height="102"></rect><g class="label" style="" transform="translate(-53.1015625, -36)"><rect></rect><foreignObject width="106.203125" height="72"><div xmlns="http://www.w3.org/1999/xhtml" style="display: table-cell; white-space: nowrap; line-height: 1.5; max-width: 200px; text-align: center;"><span class="nodeLabel "><p>🚦 Semaphore<br/>信号量<br/>(限制并发)</p></span></div></foreignObject></g></g><g class="node default  " id="flowchart-Watchdog-9" transform="translate(1833.3515625, 335)"><rect class="basic label-container" style="" x="-104.5234375" y="-39" width="209.046875" height="78"></rect><g class="label" style="" transform="translate(-74.5234375, -24)"><rect></rect><foreignObject width="149.046875" height="48"><div xmlns="http://www.w3.org/1999/xhtml" style="display: table-cell; white-space: nowrap; line-height: 1.5; max-width: 200px; text-align: center;"><span class="nodeLabel "><p>⏰ WatchdogTimer<br/>看门狗</p></span></div></foreignObject></g></g><g class="node default  " id="flowchart-InterruptMgr-10" transform="translate(1567.8671875, 335)"><rect class="basic label-container" style="" x="-110.9609375" y="-39" width="221.921875" height="78"></rect><g class="label" style="" transform="translate(-80.9609375, -24)"><rect></rect><foreignObject width="161.921875" height="48"><div xmlns="http://www.w3.org/1999/xhtml" style="display: table-cell; white-space: nowrap; line-height: 1.5; max-width: 200px; text-align: center;"><span class="nodeLabel "><p>⚡ InterruptManager<br/>中断管理</p></span></div></foreignObject></g></g><g class="node default  " id="flowchart-BatchProc-11" transform="translate(823.71875, 611)"><rect class="basic label-container" style="" x="-101.0625" y="-39" width="202.125" height="78"></rect><g class="label" style="" transform="translate(-71.0625, -24)"><rect></rect><foreignObject width="142.125" height="48"><div xmlns="http://www.w3.org/1999/xhtml" style="display: table-cell; white-space: nowrap; line-height: 1.5; max-width: 200px; text-align: center;"><span class="nodeLabel "><p>📊 BatchProcessor<br/>批量处理器</p></span></div></foreignObject></g></g><g class="node default  " id="flowchart-DualQueue-12" transform="translate(1255.2890625, 109)"><rect class="basic label-container" style="" x="-86.3828125" y="-39" width="172.765625" height="78"></rect><g class="label" style="" transform="translate(-56.3828125, -24)"><rect></rect><foreignObject width="112.765625" height="48"><div xmlns="http://www.w3.org/1999/xhtml" style="display: table-cell; white-space: nowrap; line-height: 1.5; max-width: 200px; text-align: center;"><span class="nodeLabel "><p>📬 DualQueue<br/>双队列</p></span></div></foreignObject></g></g><g class="node default  " id="flowchart-Pipeline-13" transform="translate(1255.2890625, 611)"><rect class="basic label-container" style="" x="-111.6171875" y="-39" width="223.234375" height="78"></rect><g class="label" style="" transform="translate(-81.6171875, -24)"><rect></rect><foreignObject width="163.234375" height="48"><div xmlns="http://www.w3.org/1999/xhtml" style="display: table-cell; white-space: nowrap; line-height: 1.5; max-width: 200px; text-align: center;"><span class="nodeLabel "><p>🔄 PipelineScheduler<br/>流水线调度</p></span></div></foreignObject></g></g><g class="node default  " id="flowchart-Agent-14" transform="translate(397.5859375, 611)"><rect class="basic label-container" style="" x="-81.9140625" y="-39" width="163.828125" height="78"></rect><g class="label" style="" transform="translate(-51.9140625, -24)"><rect></rect><foreignObject width="103.828125" height="48"><div xmlns="http://www.w3.org/1999/xhtml" style="display: table-cell; white-space: nowrap; line-height: 1.5; max-width: 200px; text-align: center;"><span class="nodeLabel "><p>🤖 Agent<br/>AI Agent 核心</p></span></div></foreignObject></g></g><g class="node default  " id="flowchart-Tools-15" transform="translate(438.1484375, 837)"><rect class="basic label-container" style="" x="-122.4765625" y="-39" width="244.953125" height="78"></rect><g class="label" style="" transform="translate(-92.4765625, -24)"><rect></rect><foreignObject width="184.953125" height="48"><div xmlns="http://www.w3.org/1999/xhtml" style="display: table-cell; white-space: nowrap; line-height: 1.5; max-width: 200px; text-align: center;"><span class="nodeLabel "><p>🛠️ 工具集<br/>Read/Write/Grep/Bash...</p></span></div></foreignObject></g></g><g class="node default  " id="flowchart-DB-16" transform="translate(1173.10546875, 1156)"><rect class="basic label-container" style="" x="-62.046875" y="-39" width="124.09375" height="78"></rect><g class="label" style="" transform="translate(-32.046875, -24)"><rect></rect><foreignObject width="64.09375" height="48"><div xmlns="http://www.w3.org/1999/xhtml" style="display: table-cell; white-space: nowrap; line-height: 1.5; max-width: 200px; text-align: center;"><span class="nodeLabel "><p>🗄️ db.py<br/>(SQLite)</p></span></div></foreignObject></g></g><g class="node default  " id="flowchart-Conv-17" transform="translate(1392.55859375, 1156)"><rect class="basic label-container" style="" x="-107.40625" y="-39" width="214.8125" height="78"></rect><g class="label" style="" transform="translate(-77.40625, -24)"><rect></rect><foreignObject width="154.8125" height="48"><div xmlns="http://www.w3.org/1999/xhtml" style="display: table-cell; white-space: nowrap; line-height: 1.5; max-width: 200px; text-align: center;"><span class="nodeLabel "><p>💬 conversations.py<br/>(对话历史)</p></span></div></foreignObject></g></g><g class="node default  " id="flowchart-Workspace-18" transform="translate(1636.91796875, 1156)"><rect class="basic label-container" style="" x="-86.953125" y="-39" width="173.90625" height="78"></rect><g class="label" style="" transform="translate(-56.953125, -24)"><rect></rect><foreignObject width="113.90625" height="48"><div xmlns="http://www.w3.org/1999/xhtml" style="display: table-cell; white-space: nowrap; line-height: 1.5; max-width: 200px; text-align: center;"><span class="nodeLabel "><p>📁 workspace/<br/>(工作区)</p></span></div></foreignObject></g></g><g class="node default  " id="flowchart-MiniMax-19" transform="translate(134.3359375, 837)"><rect class="basic label-container" style="" x="-91.3359375" y="-27" width="182.671875" height="54"></rect><g class="label" style="" transform="translate(-61.3359375, -12)"><rect></rect><foreignObject width="122.671875" height="24"><div xmlns="http://www.w3.org/1999/xhtml" style="display: table-cell; white-space: nowrap; line-height: 1.5; max-width: 200px; text-align: center;"><span class="nodeLabel "><p>☁️ MiniMax API</p></span></div></foreignObject></g></g><g class="node default  " id="flowchart-Engine-25" transform="translate(1396.58203125, 1015)"><rect class="basic label-container" style="" x="-56.046875" y="-27" width="112.09375" height="54"></rect><g class="label" style="" transform="translate(-26.046875, -12)"><rect></rect><foreignObject width="52.09375" height="24"><div xmlns="http://www.w3.org/1999/xhtml" style="display: table-cell; white-space: nowrap; line-height: 1.5; max-width: 200px; text-align: center;"><span class="nodeLabel "><p>Engine</p></span></div></foreignObject></g></g></g></g></g></svg>